<svg version="1.1" xmlns="http://www.w3.org/2000/svg" xmlns:xlink="http://www.w3.org/1999/xlink" width="756" height="580"><defs/><g><g transform="translate(-150,-78) scale(1,1)"><rect fill="#C0C0C0" stroke="none" x="319" y="111" width="208" height="245" opacity="0.2"/></g><g transform="translate(-150,-78) scale(1,1)"><rect fill="#ffffff" stroke="none" x="312" y="104" width="208" height="245"/></g><g transform="translate(-150,-78) scale(1,1)"><path fill="none" stroke="#000000" d="M 312 104 L 520 104 L 520 349 L 312 349 L 312 104 Z Z" stroke-miterlimit="10"/></g><g transform="translate(-150,-78) scale(1,1)"><path fill="none" stroke="#000000" d="M 312 129 L 520 129" stroke-miterlimit="10"/></g><g transform="translate(-150,-78) scale(1,1)"><path fill="none" stroke="#000000" d="M 312 212 L 520 212" stroke-miterlimit="10"/></g><g transform="translate(-150,-78) scale(1,1)"><path fill="none" stroke="#000000" d="M 312 340 L 520 340" stroke-miterlimit="10"/></g><g transform="translate(-150,-78) scale(1,1)"><g><path fill="none" stroke="none"/><text fill="#000000" stroke="none" font-family="Arial" font-size="13px" font-style="normal" font-weight="bold" text-decoration="none" x="392" y="123.5">Roulette</text></g></g><g transform="translate(-150,-78) scale(1,1)"><g><path fill="none" stroke="none"/><text fill="#000000" stroke="none" font-family="Arial" font-size="13px" font-style="normal" font-weight="normal" text-decoration="none" x="317" y="146.5">+Player player1</text></g></g><g transform="translate(-150,-78) scale(1,1)"><g><path fill="none" stroke="none"/><text fill="#000000" stroke="none" font-family="Arial" font-size="13px" font-style="normal" font-weight="normal" text-decoration="none" x="317" y="161.5">+Integer bet</text></g></g><g transform="translate(-150,-78) scale(1,1)"><g><path fill="none" stroke="none"/><text fill="#000000" stroke="none" font-family="Arial" font-size="13px" font-style="normal" font-weight="normal" text-decoration="none" x="317" y="176.5">+Integer chip balance</text></g></g><g transform="translate(-150,-78) scale(1,1)"><g><path fill="none" stroke="none"/><text fill="#000000" stroke="none" font-family="Arial" font-size="13px" font-style="normal" font-weight="normal" text-decoration="none" x="317" y="191.5">+RouletteBoard rBoard</text></g></g><g transform="translate(-150,-78) scale(1,1)"><g><path fill="none" stroke="none"/><text fill="#000000" stroke="none" font-family="Arial" font-size="13px" font-style="normal" font-weight="normal" text-decoration="none" x="317" y="206.5">+Part1</text></g></g><g transform="translate(-150,-78) scale(1,1)"><g><path fill="none" stroke="none"/><text fill="#000000" stroke="none" font-family="Arial" font-size="13px" font-style="normal" font-weight="normal" text-decoration="none" x="317" y="229.5">+public Roulette()</text></g></g><g transform="translate(-150,-78) scale(1,1)"><g><path fill="none" stroke="none"/><text fill="#000000" stroke="none" font-family="Arial" font-size="13px" font-style="normal" font-weight="normal" text-decoration="none" x="317" y="244.5">+main()</text></g></g><g transform="translate(-150,-78) scale(1,1)"><g><path fill="none" stroke="none"/><text fill="#000000" stroke="none" font-family="Arial" font-size="13px" font-style="normal" font-weight="normal" text-decoration="none" x="317" y="259.5">+public getBoard()</text></g></g><g transform="translate(-150,-78) scale(1,1)"><g><path fill="none" stroke="none"/><text fill="#000000" stroke="none" font-family="Arial" font-size="13px" font-style="normal" font-weight="normal" text-decoration="none" x="317" y="274.5">+public print rules()</text></g></g><g transform="translate(-150,-78) scale(1,1)"><g><path fill="none" stroke="none"/><text fill="#000000" stroke="none" font-family="Arial" font-size="13px" font-style="normal" font-weight="normal" text-decoration="none" x="317" y="289.5">+public mainMenu()</text></g></g><g transform="translate(-150,-78) scale(1,1)"><g><path fill="none" stroke="none"/><text fill="#000000" stroke="none" font-family="Arial" font-size="13px" font-style="normal" font-weight="normal" text-decoration="none" x="317" y="304.5">+public insideBoardMenu()</text></g></g><g transform="translate(-150,-78) scale(1,1)"><g><path fill="none" stroke="none"/><text fill="#000000" stroke="none" font-family="Arial" font-size="13px" font-style="normal" font-weight="normal" text-decoration="none" x="317" y="319.5">+public outsideBoardMenu()</text></g></g><g transform="translate(-150,-78) scale(1,1)"><g><path fill="none" stroke="none"/><text fill="#000000" stroke="none" font-family="Arial" font-size="13px" font-style="normal" font-weight="normal" text-decoration="none" x="317" y="334.5">+public getStats()</text></g></g><g transform="translate(-150,-78) scale(1,1)"><rect fill="#C0C0C0" stroke="none" x="175" y="127" width="102" height="56" opacity="0.2"/></g><g transform="translate(-150,-78) scale(1,1)"><rect fill="#ffffff" stroke="none" x="168" y="120" width="102" height="56"/></g><g transform="translate(-150,-78) scale(1,1)"><path fill="none" stroke="#000000" d="M 168 120 L 270 120 L 270 176 L 168 176 L 168 120 Z Z" stroke-miterlimit="10"/></g><g transform="translate(-150,-78) scale(1,1)"><path fill="none" stroke="#000000" d="M 168 145 L 270 145" stroke-miterlimit="10"/></g><g transform="translate(-150,-78) scale(1,1)"><path fill="none" stroke="#000000" d="M 168 155 L 270 155" stroke-miterlimit="10"/></g><g transform="translate(-150,-78) scale(1,1)"><g><path fill="none" stroke="none"/><text fill="#000000" stroke="none" font-family="Arial" font-size="13px" font-style="normal" font-weight="bold" text-decoration="none" x="174.5" y="139.5">Game interface</text></g></g><g transform="translate(-150,-78) scale(1,1)"><path fill="none" stroke="#000000" d="M 311 184 L 271 169" stroke-miterlimit="10"/></g><g transform="translate(-150,-78) scale(1,1)"><path fill="#FFFFFF" stroke="none" d="M 292.9873387065212 168.25371814660014 L 271 169 L 287.0750972588421 184.0196953404111"/></g><g transform="translate(-150,-78) scale(1,1)"><path fill="none" stroke="#000000" d="M 292.9873387065212 168.25371814660014 L 271 169 L 287.0750972588421 184.0196953404111 L 292.9873387065212 168.25371814660014" stroke-miterlimit="10"/></g><g transform="translate(-150,-78) scale(1,1)"><rect fill="#C0C0C0" stroke="none" x="167" y="463" width="206" height="192" opacity="0.2"/></g><g transform="translate(-150,-78) scale(1,1)"><rect fill="#ffffff" stroke="none" x="160" y="456" width="206" height="192"/></g><g transform="translate(-150,-78) scale(1,1)"><path fill="none" stroke="#000000" d="M 160 456 L 366 456 L 366 648 L 160 648 L 160 456 Z Z" stroke-miterlimit="10"/></g><g transform="translate(-150,-78) scale(1,1)"><path fill="none" stroke="#000000" d="M 160 481 L 366 481" stroke-miterlimit="10"/></g><g transform="translate(-150,-78) scale(1,1)"><path fill="none" stroke="#000000" d="M 160 534 L 366 534" stroke-miterlimit="10"/></g><g transform="translate(-150,-78) scale(1,1)"><g><path fill="none" stroke="none"/><text fill="#000000" stroke="none" font-family="Arial" font-size="13px" font-style="normal" font-weight="bold" text-decoration="none" x="222" y="475.5">RouletteBoard</text></g></g><g transform="translate(-150,-78) scale(1,1)"><g><path fill="none" stroke="none"/><text fill="#000000" stroke="none" font-family="Arial" font-size="13px" font-style="normal" font-weight="normal" text-decoration="none" x="165" y="498.5">+Int[][] rBoard</text></g></g><g transform="translate(-150,-78) scale(1,1)"><g><path fill="none" stroke="none"/><text fill="#000000" stroke="none" font-family="Arial" font-size="13px" font-style="normal" font-weight="normal" text-decoration="none" x="165" y="513.5">+Integer winningNumber</text></g></g><g transform="translate(-150,-78) scale(1,1)"><g><path fill="none" stroke="none"/><text fill="#000000" stroke="none" font-family="Arial" font-size="13px" font-style="normal" font-weight="normal" text-decoration="none" x="165" y="528.5">+ArrayList userPicks</text></g></g><g transform="translate(-150,-78) scale(1,1)"><g><path fill="none" stroke="none"/><text fill="#000000" stroke="none" font-family="Arial" font-size="13px" font-style="normal" font-weight="normal" text-decoration="none" x="165" y="551.5">+public RouletteBoard()</text></g></g><g transform="translate(-150,-78) scale(1,1)"><g><path fill="none" stroke="none"/><text fill="#000000" stroke="none" font-family="Arial" font-size="13px" font-style="normal" font-weight="normal" text-decoration="none" x="165" y="566.5">+public int[][] fillBoard()</text></g></g><g transform="translate(-150,-78) scale(1,1)"><g><path fill="none" stroke="none"/><text fill="#000000" stroke="none" font-family="Arial" font-size="13px" font-style="normal" font-weight="normal" text-decoration="none" x="165" y="581.5">+public Integer generateWinNum()</text></g></g><g transform="translate(-150,-78) scale(1,1)"><g><path fill="none" stroke="none"/><text fill="#000000" stroke="none" font-family="Arial" font-size="13px" font-style="normal" font-weight="normal" text-decoration="none" x="165" y="596.5">+public ArrayList userPicks()</text></g></g><g transform="translate(-150,-78) scale(1,1)"><path fill="none" stroke="#000000" d="M 309 455 L 358 350" stroke-miterlimit="10" stroke-dasharray="3"/></g><g transform="translate(-150,-78) scale(1,1)"><path fill="#FFFFFF" stroke="none" d="M 357.03389306367416 371.9787769766105 L 358 350 L 341.7755169916246 364.8582014763207"/></g><g transform="translate(-150,-78) scale(1,1)"><path fill="none" stroke="#000000" d="M 357.03389306367416 371.9787769766105 L 358 350 L 341.7755169916246 364.8582014763207 L 357.03389306367416 371.9787769766105" stroke-miterlimit="10"/></g><g transform="translate(-150,-78) scale(1,1)"><path fill="#ffffff" stroke="none" d="M 160 224 L 285 224 L 295 234 L 295 299 L 160 299 L 160 224"/></g><g transform="translate(-150,-78) scale(1,1)"><path fill="none" stroke="#000000" d="M 160 224 L 285 224 L 295 234 L 295 299 L 160 299 L 160 224 L 160 224" stroke-miterlimit="10"/></g><g transform="translate(-150,-78) scale(1,1)"><path fill="none" stroke="#000000" d="M 285 224 L 285 234 L 295 234 L 285 224" stroke-miterlimit="10"/></g><g transform="translate(-150,-78) scale(1,1)"><g><path fill="none" stroke="none"/><text fill="#000000" stroke="none" font-family="Arial" font-size="13px" font-style="normal" font-weight="normal" text-decoration="none" x="165" y="242">methods will be</text><text fill="#000000" stroke="none" font-family="Arial" font-size="13px" font-style="normal" font-weight="normal" text-decoration="none" x="165" y="255">wrapped with a while</text><text fill="#000000" stroke="none" font-family="Arial" font-size="13px" font-style="normal" font-weight="normal" text-decoration="none" x="165" y="268">loop that will be</text><text fill="#000000" stroke="none" font-family="Arial" font-size="13px" font-style="normal" font-weight="normal" text-decoration="none" x="165" y="281">broken with the</text><text fill="#000000" stroke="none" font-family="Arial" font-size="13px" font-style="normal" font-weight="normal" text-decoration="none" x="165" y="294">userInput of "q"</text></g></g><g transform="translate(-150,-78) scale(1,1)"><path fill="none" stroke="#000000" d="M 311 246 L 297 249" stroke-miterlimit="10" stroke-dasharray="3"/></g><g transform="translate(-150,-78) scale(1,1)"><path fill="#ffffff" stroke="none" d="M 536 88 L 885 88 L 895 98 L 895 644 L 536 644 L 536 88"/></g><g transform="translate(-150,-78) scale(1,1)"><path fill="none" stroke="#000000" d="M 536 88 L 885 88 L 895 98 L 895 644 L 536 644 L 536 88 L 536 88" stroke-miterlimit="10"/></g><g transform="translate(-150,-78) scale(1,1)"><path fill="none" stroke="#000000" d="M 885 88 L 885 98 L 895 98 L 885 88" stroke-miterlimit="10"/></g><g transform="translate(-150,-78) scale(1,1)"><g><path fill="none" stroke="none"/><text fill="#000000" stroke="none" font-family="Arial" font-size="13px" font-style="normal" font-weight="normal" text-decoration="none" x="541" y="106">#Roulette Rules Notes for UML</text></g></g><g transform="translate(-150,-78) scale(1,1)"><g><path fill="none" stroke="none"/></g></g><g transform="translate(-150,-78) scale(1,1)"><g><path fill="none" stroke="none"/><text fill="#000000" stroke="none" font-family="Arial" font-size="13px" font-style="normal" font-weight="normal" text-decoration="none" x="541" y="123">- numbers 1-36</text></g></g><g transform="translate(-150,-78) scale(1,1)"><g><path fill="none" stroke="none"/><text fill="#000000" stroke="none" font-family="Arial" font-size="13px" font-style="normal" font-weight="normal" text-decoration="none" x="541" y="138">- american is 0 and 00</text></g></g><g transform="translate(-150,-78) scale(1,1)"><g><path fill="none" stroke="none"/><text fill="#000000" stroke="none" font-family="Arial" font-size="13px" font-style="normal" font-weight="normal" text-decoration="none" x="541" y="153">- table minimums are posted (usually $10)</text></g></g><g transform="translate(-150,-78) scale(1,1)"><g><path fill="none" stroke="none"/></g></g><g transform="translate(-150,-78) scale(1,1)"><g><path fill="none" stroke="none"/><text fill="#000000" stroke="none" font-family="Arial" font-size="13px" font-style="normal" font-weight="normal" text-decoration="none" x="541" y="170">-</text></g></g><g transform="translate(-150,-78) scale(1,1)"><g><path fill="none" stroke="none"/><text fill="#000000" stroke="none" font-family="Arial" font-size="13px" font-style="normal" font-weight="normal" text-decoration="none" x="541" y="185">##Two areas in the table</text></g></g><g transform="translate(-150,-78) scale(1,1)"><g><path fill="none" stroke="none"/></g></g><g transform="translate(-150,-78) scale(1,1)"><g><path fill="none" stroke="none"/><text fill="#000000" stroke="none" font-family="Arial" font-size="13px" font-style="normal" font-weight="normal" text-decoration="none" x="541" y="202">- outside bottom row</text></g></g><g transform="translate(-150,-78) scale(1,1)"><g><path fill="none" stroke="none"/><text fill="#000000" stroke="none" font-family="Arial" font-size="13px" font-style="normal" font-weight="normal" text-decoration="none" x="541" y="217">	- 1 to 18</text></g></g><g transform="translate(-150,-78) scale(1,1)"><g><path fill="none" stroke="none"/><text fill="#000000" stroke="none" font-family="Arial" font-size="13px" font-style="normal" font-weight="normal" text-decoration="none" x="541" y="232">	- even</text></g></g><g transform="translate(-150,-78) scale(1,1)"><g><path fill="none" stroke="none"/><text fill="#000000" stroke="none" font-family="Arial" font-size="13px" font-style="normal" font-weight="normal" text-decoration="none" x="541" y="247">	- odd</text></g></g><g transform="translate(-150,-78) scale(1,1)"><g><path fill="none" stroke="none"/><text fill="#000000" stroke="none" font-family="Arial" font-size="13px" font-style="normal" font-weight="normal" text-decoration="none" x="541" y="262">	- black </text></g></g><g transform="translate(-150,-78) scale(1,1)"><g><path fill="none" stroke="none"/><text fill="#000000" stroke="none" font-family="Arial" font-size="13px" font-style="normal" font-weight="normal" text-decoration="none" x="541" y="277">	- red</text></g></g><g transform="translate(-150,-78) scale(1,1)"><g><path fill="none" stroke="none"/><text fill="#000000" stroke="none" font-family="Arial" font-size="13px" font-style="normal" font-weight="normal" text-decoration="none" x="541" y="292">	- 19 to 36</text></g></g><g transform="translate(-150,-78) scale(1,1)"><g><path fill="none" stroke="none"/><text fill="#000000" stroke="none" font-family="Arial" font-size="13px" font-style="normal" font-weight="normal" text-decoration="none" x="541" y="307">- outside top row</text></g></g><g transform="translate(-150,-78) scale(1,1)"><g><path fill="none" stroke="none"/><text fill="#000000" stroke="none" font-family="Arial" font-size="13px" font-style="normal" font-weight="normal" text-decoration="none" x="541" y="322">	- 1st 12</text></g></g><g transform="translate(-150,-78) scale(1,1)"><g><path fill="none" stroke="none"/><text fill="#000000" stroke="none" font-family="Arial" font-size="13px" font-style="normal" font-weight="normal" text-decoration="none" x="541" y="337">	- 2nd 12</text></g></g><g transform="translate(-150,-78) scale(1,1)"><g><path fill="none" stroke="none"/><text fill="#000000" stroke="none" font-family="Arial" font-size="13px" font-style="normal" font-weight="normal" text-decoration="none" x="541" y="352">	- 3rd 12</text></g></g><g transform="translate(-150,-78) scale(1,1)"><g><path fill="none" stroke="none"/><text fill="#000000" stroke="none" font-family="Arial" font-size="13px" font-style="normal" font-weight="normal" text-decoration="none" x="541" y="367">	- outside rest</text></g></g><g transform="translate(-150,-78) scale(1,1)"><g><path fill="none" stroke="none"/><text fill="#000000" stroke="none" font-family="Arial" font-size="13px" font-style="normal" font-weight="normal" text-decoration="none" x="541" y="382">	- column bets (3x)</text></g></g><g transform="translate(-150,-78) scale(1,1)"><g><path fill="none" stroke="none"/><text fill="#000000" stroke="none" font-family="Arial" font-size="13px" font-style="normal" font-weight="normal" text-decoration="none" x="541" y="397">- inside </text></g></g><g transform="translate(-150,-78) scale(1,1)"><g><path fill="none" stroke="none"/><text fill="#000000" stroke="none" font-family="Arial" font-size="13px" font-style="normal" font-weight="normal" text-decoration="none" x="541" y="412">	- bet a total of $10 and you can bet anything inside</text></g></g><g transform="translate(-150,-78) scale(1,1)"><g><path fill="none" stroke="none"/><text fill="#000000" stroke="none" font-family="Arial" font-size="13px" font-style="normal" font-weight="normal" text-decoration="none" x="541" y="427">	- can bet on any individual number or any series </text></g></g><g transform="translate(-150,-78) scale(1,1)"><g><path fill="none" stroke="none"/></g></g><g transform="translate(-150,-78) scale(1,1)"><g><path fill="none" stroke="none"/></g></g><g transform="translate(-150,-78) scale(1,1)"><g><path fill="none" stroke="none"/><text fill="#000000" stroke="none" font-family="Arial" font-size="13px" font-style="normal" font-weight="normal" text-decoration="none" x="541" y="446">Getting paid</text></g></g><g transform="translate(-150,-78) scale(1,1)"><g><path fill="none" stroke="none"/><text fill="#000000" stroke="none" font-family="Arial" font-size="13px" font-style="normal" font-weight="normal" text-decoration="none" x="541" y="461">- outside bottom row pays even money (1 to 1)</text></g></g><g transform="translate(-150,-78) scale(1,1)"><g><path fill="none" stroke="none"/><text fill="#000000" stroke="none" font-family="Arial" font-size="13px" font-style="normal" font-weight="normal" text-decoration="none" x="541" y="476">- outside top row pays 2 to 1</text></g></g><g transform="translate(-150,-78) scale(1,1)"><g><path fill="none" stroke="none"/><text fill="#000000" stroke="none" font-family="Arial" font-size="13px" font-style="normal" font-weight="normal" text-decoration="none" x="541" y="491">- column wins pay 2 to 1 as well</text></g></g><g transform="translate(-150,-78) scale(1,1)"><g><path fill="none" stroke="none"/><text fill="#000000" stroke="none" font-family="Arial" font-size="13px" font-style="normal" font-weight="normal" text-decoration="none" x="541" y="506">- inside...</text></g></g><g transform="translate(-150,-78) scale(1,1)"><g><path fill="none" stroke="none"/><text fill="#000000" stroke="none" font-family="Arial" font-size="13px" font-style="normal" font-weight="normal" text-decoration="none" x="541" y="521">	- bet a total of $10</text></g></g><g transform="translate(-150,-78) scale(1,1)"><g><path fill="none" stroke="none"/><text fill="#000000" stroke="none" font-family="Arial" font-size="13px" font-style="normal" font-weight="normal" text-decoration="none" x="541" y="536">	- single number win is 35 to 1</text></g></g><g transform="translate(-150,-78) scale(1,1)"><g><path fill="none" stroke="none"/><text fill="#000000" stroke="none" font-family="Arial" font-size="13px" font-style="normal" font-weight="normal" text-decoration="none" x="541" y="551">	- on the line (the two numbers on boths sides of the line)</text><text fill="#000000" stroke="none" font-family="Arial" font-size="13px" font-style="normal" font-weight="normal" text-decoration="none" x="541" y="564">wins 17 to 1</text></g></g><g transform="translate(-150,-78) scale(1,1)"><g><path fill="none" stroke="none"/><text fill="#000000" stroke="none" font-family="Arial" font-size="13px" font-style="normal" font-weight="normal" text-decoration="none" x="541" y="579">	- Straight (the whole row of three numbers) wins 11 to 1</text></g></g><g transform="translate(-150,-78) scale(1,1)"><g><path fill="none" stroke="none"/><text fill="#000000" stroke="none" font-family="Arial" font-size="13px" font-style="normal" font-weight="normal" text-decoration="none" x="541" y="594">	- basket (0, 00, and 2) wins 11 to 1</text></g></g><g transform="translate(-150,-78) scale(1,1)"><g><path fill="none" stroke="none"/><text fill="#000000" stroke="none" font-family="Arial" font-size="13px" font-style="normal" font-weight="normal" text-decoration="none" x="541" y="609">	- corner (4 numbers) wins 8 to 1</text></g></g><g transform="translate(-150,-78) scale(1,1)"><g><path fill="none" stroke="none"/><text fill="#000000" stroke="none" font-family="Arial" font-size="13px" font-style="normal" font-weight="normal" text-decoration="none" x="541" y="624">	- 5 number bet ( 0, 00, 1, 2, 3) wins 6 to 1</text></g></g><g transform="translate(-150,-78) scale(1,1)"><g><path fill="none" stroke="none"/><text fill="#000000" stroke="none" font-family="Arial" font-size="13px" font-style="normal" font-weight="normal" text-decoration="none" x="541" y="639">	- line bet (6 numbers) wins 5 to 1</text></g></g><g transform="translate(-150,-78) scale(1,1)"><path fill="none" stroke="#000000" d="M 521 275 L 535 282" stroke-miterlimit="10" stroke-dasharray="3"/></g><g transform="translate(-150,-78) scale(1,1)"><rect fill="#C0C0C0" stroke="none" x="383" y="455" width="152" height="192" opacity="0.2"/></g><g transform="translate(-150,-78) scale(1,1)"><rect fill="#ffffff" stroke="none" x="376" y="448" width="152" height="192"/></g><g transform="translate(-150,-78) scale(1,1)"><path fill="none" stroke="#000000" d="M 376 448 L 528 448 L 528 640 L 376 640 L 376 448 Z Z" stroke-miterlimit="10"/></g><g transform="translate(-150,-78) scale(1,1)"><path fill="none" stroke="#000000" d="M 376 473 L 528 473" stroke-miterlimit="10"/></g><g transform="translate(-150,-78) scale(1,1)"><path fill="none" stroke="#000000" d="M 376 541 L 528 541" stroke-miterlimit="10"/></g><g transform="translate(-150,-78) scale(1,1)"><g><path fill="none" stroke="none"/><text fill="#000000" stroke="none" font-family="Arial" font-size="13px" font-style="normal" font-weight="bold" text-decoration="none" x="436.5" y="467.5">Stats</text></g></g><g transform="translate(-150,-78) scale(1,1)"><g><path fill="none" stroke="none"/><text fill="#000000" stroke="none" font-family="Arial" font-size="13px" font-style="normal" font-weight="normal" text-decoration="none" x="381" y="490.5">+Double multiplier</text></g></g><g transform="translate(-150,-78) scale(1,1)"><g><path fill="none" stroke="none"/><text fill="#000000" stroke="none" font-family="Arial" font-size="13px" font-style="normal" font-weight="normal" text-decoration="none" x="381" y="505.5">+Integer winnings</text></g></g><g transform="translate(-150,-78) scale(1,1)"><g><path fill="none" stroke="none"/><text fill="#000000" stroke="none" font-family="Arial" font-size="13px" font-style="normal" font-weight="normal" text-decoration="none" x="381" y="520.5">+Integer losses</text></g></g><g transform="translate(-150,-78) scale(1,1)"><g><path fill="none" stroke="none"/><text fill="#000000" stroke="none" font-family="Arial" font-size="13px" font-style="normal" font-weight="normal" text-decoration="none" x="381" y="535.5">+Integer chipBalance</text></g></g><g transform="translate(-150,-78) scale(1,1)"><path fill="none" stroke="#000000" d="M 441 447 L 430 350" stroke-miterlimit="10"/></g><g transform="translate(-150,-78) scale(1,1)"><path fill="#FFFFFF" stroke="none" d="M 440.65567481611816 369.2472490037705 L 430 350 L 423.92483963084373 371.144560210348"/></g><g transform="translate(-150,-78) scale(1,1)"><path fill="none" stroke="#000000" d="M 440.65567481611816 369.2472490037705 L 430 350 L 423.92483963084373 371.144560210348 L 440.65567481611816 369.2472490037705" stroke-miterlimit="10"/></g></g></svg>